<mxfile host="65bd71144e">
    <diagram id="T7AM7KcjtrA6Ymy-e8MI" name="Page-1">
        <mxGraphModel dx="1456" dy="2200" grid="1" gridSize="10" guides="1" tooltips="1" connect="1" arrows="1" fold="1" page="1" pageScale="1" pageWidth="850" pageHeight="1100" math="0" shadow="0">
            <root>
                <mxCell id="0"/>
                <mxCell id="1" parent="0"/>
                <mxCell id="41" value="50" style="edgeStyle=none;html=1;fontSize=20;endArrow=none;endFill=0;strokeColor=#000000;labelBackgroundColor=none;" edge="1" parent="1" source="25" target="37">
                    <mxGeometry x="0.1806" y="19" relative="1" as="geometry">
                        <mxPoint as="offset"/>
                    </mxGeometry>
                </mxCell>
                <mxCell id="42" value="5" style="edgeStyle=none;html=1;fontSize=20;endArrow=open;endFill=0;strokeColor=#000000;labelBackgroundColor=none;strokeWidth=3;endSize=8;" edge="1" parent="1" source="25" target="38">
                    <mxGeometry x="0.0702" y="13" relative="1" as="geometry">
                        <mxPoint as="offset"/>
                    </mxGeometry>
                </mxCell>
                <mxCell id="43" value="12" style="edgeStyle=none;html=1;fontSize=20;endArrow=none;endFill=0;strokeColor=#000000;labelBackgroundColor=none;" edge="1" parent="1" source="25" target="39">
                    <mxGeometry x="0.0702" y="-13" relative="1" as="geometry">
                        <mxPoint as="offset"/>
                    </mxGeometry>
                </mxCell>
                <mxCell id="44" value="20" style="edgeStyle=none;html=1;fontSize=20;endArrow=none;endFill=0;strokeColor=#000000;labelBackgroundColor=none;" edge="1" parent="1" source="25" target="40">
                    <mxGeometry x="0.1806" y="-19" relative="1" as="geometry">
                        <mxPoint as="offset"/>
                    </mxGeometry>
                </mxCell>
                <mxCell id="25" value="U" style="ellipse;whiteSpace=wrap;html=1;aspect=fixed;fillColor=#008a00;fontColor=#ffffff;strokeColor=#000000;fontSize=20;" vertex="1" parent="1">
                    <mxGeometry x="10" y="80" width="80" height="80" as="geometry"/>
                </mxCell>
                <mxCell id="36" value="V" style="ellipse;whiteSpace=wrap;html=1;aspect=fixed;fillColor=#e51400;fontColor=#ffffff;strokeColor=#000000;fontSize=20;" vertex="1" parent="1">
                    <mxGeometry x="330" y="80" width="80" height="80" as="geometry"/>
                </mxCell>
                <mxCell id="50" value="22" style="edgeStyle=none;html=1;exitX=1;exitY=0.5;exitDx=0;exitDy=0;fontSize=20;endArrow=none;endFill=0;strokeColor=#000000;dashed=1;labelBackgroundColor=none;" edge="1" parent="1" source="37" target="36">
                    <mxGeometry x="-0.0021" y="10" relative="1" as="geometry">
                        <Array as="points">
                            <mxPoint x="290" y="30"/>
                        </Array>
                        <mxPoint as="offset"/>
                    </mxGeometry>
                </mxCell>
                <mxCell id="37" value="X&lt;sub&gt;1&lt;/sub&gt;" style="ellipse;whiteSpace=wrap;html=1;aspect=fixed;strokeColor=#000000;fillColor=#fa6800;fontColor=#000000;" vertex="1" parent="1">
                    <mxGeometry x="130" y="10" width="40" height="40" as="geometry"/>
                </mxCell>
                <mxCell id="51" value="12" style="edgeStyle=none;html=1;exitX=1;exitY=0.5;exitDx=0;exitDy=0;fontSize=20;endArrow=open;endFill=0;strokeColor=#000000;dashed=1;labelBackgroundColor=none;strokeWidth=3;endSize=8;" edge="1" parent="1" source="38" target="36">
                    <mxGeometry x="-0.0527" y="17" relative="1" as="geometry">
                        <Array as="points">
                            <mxPoint x="290" y="100"/>
                        </Array>
                        <mxPoint as="offset"/>
                    </mxGeometry>
                </mxCell>
                <mxCell id="38" value="X&lt;sub&gt;2&lt;/sub&gt;" style="ellipse;whiteSpace=wrap;html=1;aspect=fixed;strokeColor=#000000;fillColor=#fa6800;fontColor=#000000;" vertex="1" parent="1">
                    <mxGeometry x="170" y="70" width="40" height="40" as="geometry"/>
                </mxCell>
                <mxCell id="52" value="18" style="edgeStyle=none;html=1;exitX=1;exitY=0.5;exitDx=0;exitDy=0;fontSize=20;endArrow=none;endFill=0;strokeColor=#000000;dashed=1;labelBackgroundColor=none;" edge="1" parent="1" source="39" target="36">
                    <mxGeometry x="-0.0527" y="-17" relative="1" as="geometry">
                        <Array as="points">
                            <mxPoint x="290" y="140"/>
                        </Array>
                        <mxPoint as="offset"/>
                    </mxGeometry>
                </mxCell>
                <mxCell id="39" value="X&lt;sub&gt;3&lt;/sub&gt;" style="ellipse;whiteSpace=wrap;html=1;aspect=fixed;strokeColor=#000000;fillColor=#fa6800;fontColor=#000000;" vertex="1" parent="1">
                    <mxGeometry x="170" y="130" width="40" height="40" as="geometry"/>
                </mxCell>
                <mxCell id="49" value="34" style="edgeStyle=none;html=1;exitX=1;exitY=0.5;exitDx=0;exitDy=0;fontSize=20;endArrow=none;endFill=0;strokeColor=#000000;dashed=1;labelBackgroundColor=none;" edge="1" parent="1" source="40" target="36">
                    <mxGeometry x="-0.0021" y="-10" relative="1" as="geometry">
                        <Array as="points">
                            <mxPoint x="290" y="210"/>
                        </Array>
                        <mxPoint as="offset"/>
                    </mxGeometry>
                </mxCell>
                <mxCell id="40" value="X&lt;sub&gt;4&lt;/sub&gt;" style="ellipse;whiteSpace=wrap;html=1;aspect=fixed;strokeColor=#000000;fillColor=#fa6800;fontColor=#000000;" vertex="1" parent="1">
                    <mxGeometry x="130" y="190" width="40" height="40" as="geometry"/>
                </mxCell>
            </root>
        </mxGraphModel>
    </diagram>
</mxfile>